<?xml version="1.0" encoding="iso-8859-1"?>
<!-- Generator: Adobe Illustrator 18.0.0, SVG Export Plug-In . SVG Version: 6.00 Build 0)  -->
<!DOCTYPE svg PUBLIC "-//W3C//DTD SVG 1.1//EN" "http://www.w3.org/Graphics/SVG/1.1/DTD/svg11.dtd">
<svg version="1.1" id="Capa_1" xmlns="http://www.w3.org/2000/svg" xmlns:xlink="http://www.w3.org/1999/xlink" x="0px" y="0px"
	 viewBox="0 0 345.992 345.992" style="enable-background:new 0 0 345.992 345.992;" xml:space="preserve">
<g>
	<path d="M345.095,279.449c-1.555-3.84-5.926-5.692-9.766-4.139l-34.932,14.137l-16.281-16.281l29.039-11.755
		c3.84-1.555,5.691-5.927,4.139-9.767c-1.555-3.838-5.926-5.692-9.768-4.138l-34.93,14.14l-81.106-81.107L297.775,74.256
		c4.789,2.783,10.246,4.273,15.935,4.273c8.494,0,16.483-3.309,22.492-9.318c12.396-12.403,12.396-32.582-0.002-44.981
		c-6.008-6.007-13.996-9.314-22.49-9.314c-7.242,0-14.111,2.412-19.701,6.842c-23.961-6.101-53.924-1.973-87.051,12.055
		c-33.088,14.01-66.318,36.656-96.492,65.702L66.07,55.117l30.1-30.095c2.004-2.005,2.707-4.969,1.816-7.66
		c-0.891-2.691-3.225-4.65-6.029-5.063L8.939,0.081c-2.348-0.35-4.719,0.44-6.395,2.116C0.867,3.875,0.082,6.246,0.427,8.593
		L12.64,91.609c0.412,2.805,2.371,5.137,5.063,6.028c0.773,0.256,1.568,0.38,2.357,0.38c1.957,0,3.875-0.768,5.303-2.196
		l30.1-30.097l44.4,44.4c-28.982,30.11-51.604,63.268-65.621,96.289c-14.065,33.135-18.232,63.123-12.17,87.114
		c-10.68,12.483-10.125,31.339,1.684,43.148c6.008,6.007,13.996,9.316,22.492,9.316c8.496,0,16.482-3.309,22.49-9.316
		c6.008-6.008,9.318-13.995,9.316-22.492c0-5.688-1.49-11.145-4.273-15.935l107.103-107.103l81.107,81.107l-14.135,34.928
		c-1.555,3.84,0.299,8.212,4.139,9.766c0.922,0.373,1.873,0.55,2.811,0.55c2.965,0,5.773-1.771,6.955-4.688l11.75-29.035
		l16.281,16.281l-14.137,34.929c-1.555,3.839,0.299,8.212,4.139,9.766c0.922,0.373,1.873,0.55,2.811,0.55
		c2.965,0,5.773-1.771,6.955-4.689l14.809-36.59l36.588-14.807C344.796,287.66,346.648,283.288,345.095,279.449z M25.308,74.663
		L16.736,16.39l58.275,8.575L25.308,74.663z M180.884,169.931l-37.051-37.051c44.98-43.181,97.461-71.501,139.877-75.541
		c0.812,2.296,1.893,4.489,3.218,6.548L180.884,169.931z M301.828,34.837c3.174-3.174,7.393-4.922,11.883-4.922
		c4.488,0,8.711,1.748,11.885,4.921c6.551,6.552,6.549,17.216,0,23.769c-3.176,3.175-7.396,4.924-11.885,4.924
		c-4.49,0-8.709-1.748-11.885-4.925c-3.176-3.174-4.924-7.394-4.924-11.883C296.902,42.233,298.65,38.013,301.828,34.837z
		 M48.05,212.275c14.107-33.235,37.506-66.744,67.668-96.903c30.221-30.222,63.793-53.648,97.09-67.746
		c26.756-11.331,51.611-15.658,71.305-12.58c-0.93,2.361-1.576,4.837-1.918,7.385c-47.502,4.618-105.906,36.662-154.334,85.088
		c-48.762,48.766-80.801,107.401-85.156,155.06c-2.481,0.273-4.897,0.825-7.211,1.654C32.261,264.415,36.572,239.316,48.05,212.275z
		 M58.13,326.069c-3.174,3.175-7.393,4.923-11.883,4.923c-4.49,0-8.711-1.749-11.885-4.922c-6.553-6.554-6.553-17.217,0-23.77
		c3.176-3.175,7.396-4.924,11.885-4.924c4.49,0,8.709,1.748,11.883,4.923c3.176,3.176,4.924,7.397,4.924,11.886
		C63.054,318.674,61.306,322.894,58.13,326.069z M63.413,287.403c-1.842-1.184-3.793-2.17-5.827-2.944
		c3.639-42.618,32.002-95.521,75.639-140.972l37.053,37.053L63.413,287.403z"/>
</g>
<g>
</g>
<g>
</g>
<g>
</g>
<g>
</g>
<g>
</g>
<g>
</g>
<g>
</g>
<g>
</g>
<g>
</g>
<g>
</g>
<g>
</g>
<g>
</g>
<g>
</g>
<g>
</g>
<g>
</g>
</svg>
