<?xml version="1.0" encoding="iso-8859-1"?>
<!-- Generator: Adobe Illustrator 18.0.0, SVG Export Plug-In . SVG Version: 6.00 Build 0)  -->
<!DOCTYPE svg PUBLIC "-//W3C//DTD SVG 1.1//EN" "http://www.w3.org/Graphics/SVG/1.1/DTD/svg11.dtd">
<svg version="1.1" id="Capa_1" xmlns="http://www.w3.org/2000/svg" xmlns:xlink="http://www.w3.org/1999/xlink" x="0px" y="0px"
	 viewBox="0 0 385.139 385.139" style="enable-background:new 0 0 385.139 385.139;" xml:space="preserve">
<g>
	<g>
		<g>
			<g>
				<path d="M223.526,210.848c0-17.068-13.887-30.955-30.955-30.955c-17.07,0-30.957,13.887-30.957,30.955
					c0,10.057,4.918,19.393,12.904,25.143l-9.973,52.602c-0.416,2.195,0.168,4.461,1.592,6.182c1.426,1.719,3.543,2.715,5.777,2.715
					h41.313c2.232,0,4.352-0.996,5.775-2.715c1.426-1.721,2.01-3.986,1.594-6.182l-9.975-52.604
					C218.608,230.24,223.526,220.904,223.526,210.848z M199.163,225.377c-3.145,1.432-4.906,4.828-4.262,8.225l9.27,48.887h-23.201
					l9.27-48.887c0.643-3.396-1.117-6.793-4.264-8.225c-5.688-2.588-9.361-8.291-9.361-14.529c0-8.797,7.158-15.955,15.957-15.955
					c8.797,0,15.955,7.158,15.955,15.955C208.526,217.086,204.85,222.789,199.163,225.377z"/>
			</g>
		</g>
		<g>
			<path d="M104.499,140.414c-31.693,7.57-50.447,38.01-45.609,74.023c2.252,16.768,10.242,33.621,23.752,50.094
				c1.482,1.809,3.635,2.744,5.803,2.744c1.674,0,3.357-0.557,4.752-1.701c3.203-2.625,3.67-7.352,1.043-10.555
				c-11.717-14.287-18.607-28.611-20.482-42.578c-3.775-28.104,10.299-51.723,34.227-57.438c4.029-0.961,6.516-5.008,5.553-9.037
				C112.575,141.939,108.53,139.451,104.499,140.414z"/>
			<path d="M361.092,179.982c-5.107-21.99-18.08-40.844-35.51-53.926c0.086-0.543,0.117-1.102,0.08-1.674
				c-2.256-33.709-17.102-65.047-41.807-88.244C259.04,12.834,226.612,0,192.551,0c-33.971,0-66.336,12.777-91.129,35.975
				c-24.672,23.086-39.568,54.303-41.943,87.9c-0.053,0.729,0.008,1.439,0.154,2.119c-17.467,13.084-30.469,31.961-35.586,53.986
				c-5.076,21.854-4.816,56.641,25.256,98.264c27.793,38.471,74.873,74.176,139.93,106.127c1.043,0.512,2.176,0.768,3.307,0.768
				c1.133,0,2.264-0.256,3.307-0.768c65.074-31.951,112.17-67.658,139.973-106.127C365.903,236.621,366.169,201.836,361.092,179.982
				z M192.284,36.795c-44.049,0-82.098,29.367-93.346,71.686c-8.238,1.613-16.156,4.293-23.578,7.908
				C83.669,58.883,133.569,15,192.551,15c59.063,0,108.883,43.848,117.189,101.375c-7.59-3.691-15.699-6.41-24.137-8.008
				C274.407,66.598,235.983,36.795,192.284,36.795z M192.284,51.795c34.959,0,65.9,22.58,77.117,54.932
				c-0.465-0.008-0.926-0.031-1.392-0.031c-29.281,0-55.742,13.428-75.467,38.053c-19.713-24.625-46.164-38.053-75.438-38.053
				c-0.662,0-1.318,0.029-1.979,0.043C126.352,74.033,157.048,51.795,192.284,51.795z M192.54,369.271
				C81.872,314.119,24.393,244.777,38.659,183.373c8.301-35.738,41.293-61.678,78.445-61.678c27.324,0,51.904,14.172,69.213,39.902
				c1.393,2.072,3.727,3.314,6.223,3.314l0,0c2.496,0,4.828-1.242,6.223-3.313c17.32-25.732,41.912-39.904,69.246-39.904
				c37.17,0,70.172,25.941,78.473,61.68C360.743,244.775,303.243,314.115,192.54,369.271z"/>
		</g>
	</g>
</g>
<g>
</g>
<g>
</g>
<g>
</g>
<g>
</g>
<g>
</g>
<g>
</g>
<g>
</g>
<g>
</g>
<g>
</g>
<g>
</g>
<g>
</g>
<g>
</g>
<g>
</g>
<g>
</g>
<g>
</g>
</svg>
