<?xml version="1.0" encoding="iso-8859-1"?>
<!-- Generator: Adobe Illustrator 18.0.0, SVG Export Plug-In . SVG Version: 6.00 Build 0)  -->
<!DOCTYPE svg PUBLIC "-//W3C//DTD SVG 1.1//EN" "http://www.w3.org/Graphics/SVG/1.1/DTD/svg11.dtd">
<svg version="1.1" id="Capa_1" xmlns="http://www.w3.org/2000/svg" xmlns:xlink="http://www.w3.org/1999/xlink" x="0px" y="0px"
	 viewBox="0 0 377.789 377.789" style="enable-background:new 0 0 377.789 377.789;" xml:space="preserve">
<g>
	<g>
		<g>
			<path d="M268.767,94.961c-0.588-47.703-20.103-70.816-36.369-81.803C214.322,0.949,195.734,0,190.469,0
				c-0.643,0-0.984,0.016-0.984,0.016c-0.025,0-0.092,0.004-0.117,0.006c-27.523,1.527-48.354,12.592-61.914,32.883
				c-10.936,16.365-14.463,34.832-16.57,45.865l-0.389,2.02c-2.82,14.508-1.547,25.223,3.891,32.756
				c6.529,9.047,17.281,10.434,20.813,10.889c1.695,0.219,3.357,0.33,4.943,0.33c24.1,0,28.18-23.912,29.715-32.912
				c3.529-20.688,12.934-28.027,19.914-28.027c3.93,0,7.748,2.195,10.752,6.184c5.662,7.521,6.426,29.375,1.406,40.313
				c-3.514,7.654-17.781,18.498-32.885,29.979c-11.226,8.533-23.953,18.205-35.637,28.975
				c-17.094,15.75-24.387,28.766-24.387,43.516v147.988c0,9.381,7.631,17.012,17.014,17.012h125.725
				c9.379,0,17.012-7.631,17.012-17.012L268.767,94.961z M253.77,360.777c0,1.109-0.902,2.012-2.012,2.012H126.033
				c-1.111,0-2.014-0.902-2.014-2.012V212.789c0-7.516,2.367-16.652,19.551-32.486c11.162-10.287,23.588-19.73,34.549-28.063
				c18.08-13.74,32.359-24.594,37.441-35.664c6.654-14.502,6.775-42.531-3.057-55.592c-5.822-7.729-14.107-12.16-22.734-12.16
				c-12.818,0-29.6,10.607-34.701,40.504c-2.574,15.088-6.48,20.436-14.928,20.436c-0.947,0-1.963-0.07-3.023-0.207
				c-5.424-0.699-8.684-2.178-10.57-4.793c-2.801-3.877-3.26-11.178-1.328-21.113l0.396-2.066
				c3.945-20.654,12.152-63.623,64.486-66.58c0.07-0.002,0.193-0.004,0.367-0.004c2.982,0,18.613,0.51,33.533,10.588
				c19.344,13.066,29.359,36.469,29.768,69.467V360.777z"/>
			<path d="M207.752,229.395c-6.926,0-13.475,2.686-18.857,7.578c-5.381-4.893-11.93-7.578-18.855-7.578
				c-13.514,0-25.373,9.744-28.838,23.697c-1.77,7.125-2.09,18.408,6.434,31.707c7.469,11.65,20.17,22.275,37.752,31.582
				c1.098,0.582,2.303,0.871,3.508,0.871c1.207,0,2.412-0.289,3.51-0.871c17.58-9.307,30.281-19.932,37.75-31.582
				c8.523-13.299,8.203-24.582,6.434-31.707C233.123,239.139,221.264,229.395,207.752,229.395z M155.758,256.709
				c1.771-7.137,7.779-12.315,14.281-12.315c4.82,0,9.141,2.842,12.49,8.221c1.369,2.199,3.775,3.535,6.365,3.535
				s4.998-1.336,6.367-3.535c3.35-5.379,7.668-8.221,12.49-8.221c6.5,0,12.506,5.178,14.277,12.313
				c1.35,5.432,2.77,24.303-33.135,44.502C152.99,281.01,154.41,262.139,155.758,256.709z"/>
		</g>
	</g>
</g>
<g>
</g>
<g>
</g>
<g>
</g>
<g>
</g>
<g>
</g>
<g>
</g>
<g>
</g>
<g>
</g>
<g>
</g>
<g>
</g>
<g>
</g>
<g>
</g>
<g>
</g>
<g>
</g>
<g>
</g>
</svg>
