<?xml version="1.0" encoding="iso-8859-1"?>
<!-- Generator: Adobe Illustrator 18.0.0, SVG Export Plug-In . SVG Version: 6.00 Build 0)  -->
<!DOCTYPE svg PUBLIC "-//W3C//DTD SVG 1.1//EN" "http://www.w3.org/Graphics/SVG/1.1/DTD/svg11.dtd">
<svg version="1.1" id="Capa_1" xmlns="http://www.w3.org/2000/svg" xmlns:xlink="http://www.w3.org/1999/xlink" x="0px" y="0px"
	 viewBox="0 0 378.763 378.763" style="enable-background:new 0 0 378.763 378.763;" xml:space="preserve">
<g>
	<g>
		<path d="M231.267,193.445v-18.833c0-4.143-3.357-7.5-7.5-7.5h-1.017v-16.347c5.331-4.477,10.256-10.068,14.638-16.701
			c1.673-2.532,3.229-5.188,4.688-7.937c1.86,0.584,3.75,0.868,5.625,0.868c8.876,0,17.391-6.234,20.505-15.844
			c3.789-11.7-1.838-24.043-12.545-27.514c-0.241-0.078-0.483-0.143-0.727-0.195c0.645-5.47,0.991-11.052,0.991-16.712
			c0-1.582-0.032-3.118-0.084-4.627c-0.001-0.037-0.003-0.074-0.004-0.11C253.87,6.556,217.172,0,189.378,0
			c-27.797,0-64.5,6.559-66.454,62.028c-0.001,0.021-0.002,0.041-0.002,0.063c-0.053,1.513-0.085,3.055-0.085,4.641
			c0,5.66,0.347,11.242,0.99,16.711c-0.242,0.053-0.484,0.118-0.726,0.196c-10.708,3.471-16.336,15.813-12.545,27.516
			c3.114,9.608,11.628,15.842,20.505,15.842c1.874,0,3.765-0.284,5.624-0.868c1.459,2.748,3.015,5.404,4.687,7.937
			c4.383,6.634,9.308,12.228,14.64,16.704v16.344h-1.016c-4.143,0-7.5,3.357-7.5,7.5v18.819
			c-13.865,1.906-37.829,7.306-59.892,22.586c-15.098,10.456-26.984,23.934-35.332,40.06C42.3,275.339,37.36,298.494,37.587,324.9
			c0.028,3.233,2.125,6.085,5.203,7.075l144.344,46.428c0.747,0.24,1.521,0.36,2.297,0.36c0.775,0,1.551-0.12,2.298-0.36
			l144.244-46.428c3.077-0.991,5.174-3.842,5.202-7.075C342.093,218.567,260.555,197.555,231.267,193.445z M252.289,98.597
			c1.903,1.521,2.665,4.787,1.646,7.933c-0.966,2.982-3.29,5.109-5.604,5.424C249.879,107.652,251.204,103.191,252.289,98.597z
			 M124.827,106.53c-1.02-3.146-0.257-6.412,1.646-7.934c1.085,4.595,2.41,9.055,3.958,13.355
			C128.119,111.637,125.793,109.511,124.827,106.53z M308.374,254.605c10.202,15.765,17.195,36.769,17.77,64.775l-17.77,5.72
			V254.605z M140.22,275.755v-65.91c6.18-1.264,11.508-1.909,15.415-2.232c4.077-0.338,7.116-3.877,6.861-7.941v-17.559h7.396
			v17.781c0,4.143,3.357,7.5,7.5,7.5h23.979c4.143,0,7.5-3.357,7.5-7.5v-17.781h7.396v17.408c-0.341,4.128,2.729,7.751,6.856,8.092
			c3.909,0.323,9.238,0.969,15.42,2.232v65.909l-49.162,13.239L140.22,275.755z M184.892,192.394v-10.281h8.979v10.281H184.892z
			 M207.75,167.112h-36.738v-7.152c5.88,2.406,12.045,3.648,18.366,3.648c6.323,0,12.49-1.243,18.372-3.65V167.112z M235.127,35.569
			c-7.02-4.097-15.934-6.834-26.955-6.586c-8.117,0.162-9.4-1.288-9.45-1.351c-0.855-1.054-1.129-5.214-1.37-8.884
			c-0.072-1.108-0.151-2.291-0.248-3.533C214.549,16.233,227.964,21.195,235.127,35.569z M181.66,15.216
			c-0.097,1.242-0.176,2.426-0.248,3.533c-0.241,3.67-0.515,7.83-1.369,8.884c-0.05,0.063-1.35,1.526-9.451,1.351
			c-11.024-0.244-19.94,2.499-26.965,6.602C150.788,21.197,164.207,16.233,181.66,15.216z M153.889,125.797
			c-10.352-15.669-16.052-36.646-16.052-59.065c0-1.07,0.022-2.104,0.048-3.132c1.587-3.838,9.451-19.631,31.353-19.631
			c0.336,0,0.679,0.003,1.021,0.011c6.26,0.138,13.822-0.328,19.122-4.605c5.294,4.277,12.846,4.744,19.123,4.605
			c22.622-0.467,30.707,15.605,32.373,19.627c0.025,1.026,0.048,2.057,0.048,3.125c0,22.42-5.701,43.396-16.053,59.064
			c-9.719,14.711-22.324,22.813-35.494,22.813C176.21,148.608,163.606,140.507,153.889,125.797z M70.389,325.095l-17.771-5.716
			c0.574-28.005,7.568-49.009,17.771-64.772V325.095z M105.695,269.499c-1.853,1.419-2.938,3.62-2.938,5.953v60.053l-17.367-5.586
			v-93.176c12.529-11.611,26.902-18.65,39.831-22.916v57.888l-13.014-3.505C109.955,267.604,107.547,268.079,105.695,269.499z
			 M181.831,360.94l-64.075-20.609v-55.091l64.075,17.256V360.94z M261.006,340.346l-64.075,20.624v-58.475l64.075-17.256V340.346z
			 M293.374,329.927l-17.368,5.591v-60.065c0-2.333-1.086-4.534-2.938-5.953c-1.853-1.419-4.261-1.895-6.512-1.289l-13.013,3.504
			v-57.888c12.929,4.265,27.302,11.304,39.831,22.915V329.927z"/>
		<path d="M172.119,96.081c1.4-1.4,2.2-3.33,2.2-5.311c0-1.97-0.8-3.899-2.2-5.3c-1.39-1.4-3.319-2.2-5.3-2.2
			c-1.98,0-3.91,0.8-5.3,2.2c-1.4,1.4-2.2,3.33-2.2,5.3c0,1.98,0.8,3.91,2.2,5.311c1.39,1.39,3.32,2.189,5.3,2.189
			C168.788,98.271,170.719,97.471,172.119,96.081z"/>
		<path d="M211.949,98.271c1.97,0,3.9-0.8,5.3-2.189c1.4-1.4,2.2-3.33,2.2-5.311c0-1.97-0.8-3.899-2.2-5.3
			c-1.39-1.4-3.33-2.2-5.3-2.2c-1.98,0-3.91,0.8-5.3,2.2c-1.4,1.4-2.2,3.33-2.2,5.3c0,1.98,0.8,3.91,2.2,5.311
			C208.038,97.471,209.969,98.271,211.949,98.271z"/>
	</g>
</g>
<g>
</g>
<g>
</g>
<g>
</g>
<g>
</g>
<g>
</g>
<g>
</g>
<g>
</g>
<g>
</g>
<g>
</g>
<g>
</g>
<g>
</g>
<g>
</g>
<g>
</g>
<g>
</g>
<g>
</g>
</svg>
